<svg width="600" height="1000" viewBox="0 0 600 1000" xmlns="http://www.w3.org/2000/svg" role="img" aria-label="Norris West Coast IPA can">
<defs>
<linearGradient id="green" x1="90" x2="510" y1="0" y2="0"><stop stop-color="#031008"/><stop offset=".18" stop-color="#21462e"/><stop offset=".5" stop-color="#0a2417"/><stop offset=".75" stop-color="#245133"/><stop offset="1" stop-color="#020705"/></linearGradient>
<linearGradient id="metal" x1="110" x2="490" y1="0" y2="0"><stop stop-color="#4c4a45"/><stop offset=".2" stop-color="#ded8cc"/><stop offset=".5" stop-color="#fff7ea"/><stop offset=".82" stop-color="#777168"/><stop offset="1" stop-color="#26231f"/></linearGradient>
<radialGradient id="shine" cx="32%" cy="20%" r="72%"><stop stop-color="#e9fff0" stop-opacity=".28"/><stop offset=".45" stop-color="#e9fff0" stop-opacity="0"/></radialGradient>
<filter id="ds" x="-20%" y="-10%" width="140%" height="125%"><feDropShadow dx="0" dy="34" stdDeviation="22" flood-color="#000" flood-opacity=".55"/></filter>
</defs>
<g filter="url(#ds)">
<ellipse cx="300" cy="104" rx="199" ry="25" fill="url(#metal)"/>
<path d="M113 118C113 82 151 62 190 62H410C449 62 487 82 487 118L508 190V810C508 867 464 912 409 926H191C136 912 92 867 92 810V190L113 118Z" fill="url(#green)"/>
<path d="M113 118C113 82 151 62 190 62H410C449 62 487 82 487 118L508 190V810C508 867 464 912 409 926H191C136 912 92 867 92 810V190L113 118Z" fill="url(#shine)"/>
<path d="M113 118C113 82 151 62 190 62H410C449 62 487 82 487 118" fill="none" stroke="#e8dcc4" stroke-opacity=".28" stroke-width="7"/>
<path d="M505 178V815" stroke="#000" stroke-opacity=".32" stroke-width="18"/>
<path d="M98 190V810" stroke="#fff" stroke-opacity=".08" stroke-width="14"/>
<ellipse cx="300" cy="914" rx="198" ry="28" fill="url(#metal)"/>
<ellipse cx="300" cy="934" rx="155" ry="17" fill="#040604" opacity=".55"/>
<text x="300" y="295" text-anchor="middle" font-family="Georgia,serif" font-size="118" font-weight="900" fill="#f0dec3">N</text>
<rect x="239" y="324" width="122" height="18" fill="#f0dec3"/>
<text x="300" y="520" text-anchor="middle" font-family="Impact,Arial Black,Arial,sans-serif" font-size="104" fill="#f0dec3" letter-spacing="5">NORRIS</text>
<text x="300" y="574" text-anchor="middle" font-family="Arial,sans-serif" font-size="30" font-weight="900" fill="#f0dec3" letter-spacing="10">BREWING CO.</text>
<path d="M218 648H382" stroke="#f0dec3" stroke-width="3" opacity=".8"/>
<text x="300" y="735" text-anchor="middle" font-family="Impact,Arial Black,Arial,sans-serif" font-size="42" fill="#a8ad37" letter-spacing="4">WEST COAST IPA</text>
<text x="300" y="805" text-anchor="middle" font-family="Arial,sans-serif" font-size="25" font-weight="900" fill="#f0dec3" letter-spacing="4">NON-ALCOHOLIC BEER</text>
<text x="300" y="864" text-anchor="middle" font-family="Arial,sans-serif" font-size="27" font-weight="900" fill="#f0dec3">355 mL</text>
</g>
</svg>