<svg width="420" height="920" viewBox="0 0 420 920" fill="none" xmlns="http://www.w3.org/2000/svg" role="img" aria-label="Norris West Coast IPA can">
<defs>
<linearGradient id="body" x1="72" y1="0" x2="348" y2="0"><stop stop-color="#04100a"/><stop offset=".18" stop-color="#1c3b28"/><stop offset=".44" stop-color="#0a2116"/><stop offset=".72" stop-color="#224b31"/><stop offset="1" stop-color="#020705"/></linearGradient>
<linearGradient id="metal" x1="95" y1="0" x2="325" y2="0"><stop stop-color="#4b4a45"/><stop offset=".18" stop-color="#dad4c7"/><stop offset=".5" stop-color="#fff8ec"/><stop offset=".8" stop-color="#7f7a70"/><stop offset="1" stop-color="#25231f"/></linearGradient>
<radialGradient id="light" cx="34%" cy="22%" r="68%"><stop stop-color="#d9f1d7" stop-opacity=".28"/><stop offset=".48" stop-color="#d9f1d7" stop-opacity="0"/></radialGradient>
<filter id="shadow" x="-30%" y="-10%" width="160%" height="125%"><feDropShadow dx="0" dy="48" stdDeviation="28" flood-color="#000" flood-opacity=".62"/></filter>
<filter id="grain"><feTurbulence type="fractalNoise" baseFrequency=".9" numOctaves="3" seed="17"/><feColorMatrix type="saturate" values="0"/><feComponentTransfer><feFuncA type="table" tableValues="0 .16"/></feComponentTransfer></filter>
<clipPath id="clip"><path d="M101 124C101 87 130 66 164 66H256C290 66 319 87 319 124L337 182V788C337 846 298 880 252 888H168C122 880 83 846 83 788V182L101 124Z"/></clipPath>
</defs>
<g filter="url(#shadow)">
<path d="M113 55C113 38 131 28 156 28H264C289 28 307 38 307 55L320 92H100L113 55Z" fill="url(#metal)"/>
<ellipse cx="210" cy="90" rx="111" ry="17" fill="#f7f0df" opacity=".86"/>
<path d="M101 124C101 87 130 66 164 66H256C290 66 319 87 319 124L337 182V788C337 846 298 880 252 888H168C122 880 83 846 83 788V182L101 124Z" fill="url(#body)"/>
<path d="M101 124C101 87 130 66 164 66H256C290 66 319 87 319 124L337 182V788C337 846 298 880 252 888H168C122 880 83 846 83 788V182L101 124Z" fill="url(#light)"/>
<g clip-path="url(#clip)"><rect x="72" y="60" width="280" height="830" filter="url(#grain)"/><path d="M94 150C116 126 139 113 174 112" stroke="#fff" stroke-opacity=".16" stroke-width="10"/><path d="M326 156V806" stroke="#000" stroke-opacity=".32" stroke-width="18"/><path d="M91 180V795" stroke="#fff" stroke-opacity=".09" stroke-width="14"/></g>
<ellipse cx="210" cy="846" rx="116" ry="17" fill="url(#metal)" opacity=".86"/>
<ellipse cx="210" cy="885" rx="86" ry="16" fill="#050504" opacity=".82"/>
<text x="210" y="277" text-anchor="middle" font-family="Georgia,serif" font-size="92" font-weight="900" fill="#f0dec3">N</text>
<rect x="165" y="303" width="90" height="12" fill="#f0dec3"/>
<text x="210" y="484" text-anchor="middle" font-family="Impact,Arial Black,Arial,sans-serif" font-size="72" font-weight="900" fill="#f0dec3" letter-spacing="5">NORRIS</text>
<text x="210" y="530" text-anchor="middle" font-family="Arial,sans-serif" font-size="22" font-weight="900" fill="#f0dec3" letter-spacing="7">BREWING CO.</text>
<path d="M148 595H272" stroke="#c8c185" stroke-width="2" opacity=".8"/>
<text x="210" y="670" text-anchor="middle" font-family="Impact,Arial Black,Arial,sans-serif" font-size="30" fill="#a8ad37" letter-spacing="3">WEST COAST IPA</text>
<text x="210" y="744" text-anchor="middle" font-family="Arial,sans-serif" font-size="18" font-weight="900" fill="#f0dec3" letter-spacing="3">NON-ALCOHOLIC BEER</text>
<text x="210" y="800" text-anchor="middle" font-family="Arial,sans-serif" font-size="20" font-weight="800" fill="#f0dec3">355 mL</text>
</g>
</svg>