<svg width="600" height="1000" viewBox="0 0 600 1000" xmlns="http://www.w3.org/2000/svg" role="img" aria-label="Norris Lager can">
<defs>
<linearGradient id="cream" x1="90" x2="510" y1="0" y2="0"><stop stop-color="#bba37c"/><stop offset=".16" stop-color="#f7e9c9"/><stop offset=".5" stop-color="#d7bd91"/><stop offset=".74" stop-color="#fff1cf"/><stop offset="1" stop-color="#9a815d"/></linearGradient>
<linearGradient id="metal" x1="110" x2="490" y1="0" y2="0"><stop stop-color="#4c4a45"/><stop offset=".2" stop-color="#ded8cc"/><stop offset=".5" stop-color="#fff7ea"/><stop offset=".82" stop-color="#777168"/><stop offset="1" stop-color="#26231f"/></linearGradient>
<radialGradient id="shine" cx="32%" cy="20%" r="72%"><stop stop-color="#fff8e6" stop-opacity=".65"/><stop offset=".45" stop-color="#fff8e6" stop-opacity="0"/></radialGradient>
<filter id="ds" x="-20%" y="-10%" width="140%" height="125%"><feDropShadow dx="0" dy="34" stdDeviation="22" flood-color="#000" flood-opacity=".45"/></filter>
</defs>
<g filter="url(#ds)">
<ellipse cx="300" cy="104" rx="199" ry="25" fill="url(#metal)"/>
<path d="M113 118C113 82 151 62 190 62H410C449 62 487 82 487 118L508 190V810C508 867 464 912 409 926H191C136 912 92 867 92 810V190L113 118Z" fill="url(#cream)"/>
<path d="M113 118C113 82 151 62 190 62H410C449 62 487 82 487 118L508 190V810C508 867 464 912 409 926H191C136 912 92 867 92 810V190L113 118Z" fill="url(#shine)"/>
<path d="M113 118C113 82 151 62 190 62H410C449 62 487 82 487 118" fill="none" stroke="#fff6de" stroke-opacity=".55" stroke-width="7"/>
<path d="M505 178V815" stroke="#000" stroke-opacity=".2" stroke-width="18"/>
<path d="M98 190V810" stroke="#fff" stroke-opacity=".16" stroke-width="14"/>
<ellipse cx="300" cy="914" rx="198" ry="28" fill="url(#metal)"/>
<ellipse cx="300" cy="934" rx="155" ry="17" fill="#17140f" opacity=".45"/>
<text x="300" y="295" text-anchor="middle" font-family="Georgia,serif" font-size="118" font-weight="900" fill="#071b2b">N</text>
<rect x="239" y="324" width="122" height="18" fill="#b98518"/>
<text x="300" y="520" text-anchor="middle" font-family="Impact,Arial Black,Arial,sans-serif" font-size="104" fill="#071b2b" letter-spacing="5">NORRIS</text>
<text x="300" y="574" text-anchor="middle" font-family="Arial,sans-serif" font-size="30" font-weight="900" fill="#071b2b" letter-spacing="10">BREWING CO.</text>
<path d="M218 648H382" stroke="#b98518" stroke-width="3" opacity=".8"/>
<text x="300" y="735" text-anchor="middle" font-family="Impact,Arial Black,Arial,sans-serif" font-size="48" fill="#b98518" letter-spacing="7">LAGER</text>
<text x="300" y="805" text-anchor="middle" font-family="Arial,sans-serif" font-size="25" font-weight="900" fill="#071b2b" letter-spacing="4">NON-ALCOHOLIC BEER</text>
<text x="300" y="864" text-anchor="middle" font-family="Arial,sans-serif" font-size="27" font-weight="900" fill="#071b2b">355 mL</text>
</g>
</svg>