<svg width="420" height="920" viewBox="0 0 420 920" fill="none" xmlns="http://www.w3.org/2000/svg" role="img" aria-labelledby="title desc">
<title id="title">Norris Pale Ale can</title>
<desc id="desc">Premium Norris Pale Ale non-alcoholic beer can in warm cream with forest green type.</desc>
<defs>
  <linearGradient id="cream" x1="62" y1="0" x2="354" y2="0" gradientUnits="userSpaceOnUse">
    <stop stop-color="#d9c7aa"/><stop offset=".18" stop-color="#f3e5c9"/><stop offset=".46" stop-color="#dfcfb4"/><stop offset=".72" stop-color="#f7ead0"/><stop offset="1" stop-color="#b8a487"/>
  </linearGradient>
  <linearGradient id="rim" x1="85" y1="0" x2="335" y2="0" gradientUnits="userSpaceOnUse">
    <stop stop-color="#272523"/><stop offset=".16" stop-color="#aaa49a"/><stop offset=".42" stop-color="#fbf6e9"/><stop offset=".68" stop-color="#767168"/><stop offset="1" stop-color="#181715"/>
  </linearGradient>
  <radialGradient id="shine" cx="34%" cy="20%" r="68%"><stop stop-color="#fff8e7" stop-opacity=".48"/><stop offset=".55" stop-color="#fff8e7" stop-opacity="0"/></radialGradient>
  <filter id="grain" x="-20%" y="-20%" width="140%" height="140%"><feTurbulence type="fractalNoise" baseFrequency="0.78" numOctaves="4" seed="22"/><feColorMatrix type="saturate" values="0"/><feComponentTransfer><feFuncA type="table" tableValues="0 .18"/></feComponentTransfer></filter>
  <clipPath id="canClip"><path d="M102 119C102 90 128 73 161 73H259C292 73 318 90 318 119L337 176V788C337 842 298 878 252 887H168C122 878 83 842 83 788V176L102 119Z"/></clipPath>
</defs>
<g filter="drop-shadow(0 52px 54px rgba(0,0,0,.55))">
  <path d="M115 58C115 43 130 34 151 34H269C290 34 305 43 305 58L318 91H102L115 58Z" fill="url(#rim)"/>
  <ellipse cx="210" cy="88" rx="110" ry="15" fill="#f7f0de" opacity=".86"/>
  <path d="M102 119C102 90 128 73 161 73H259C292 73 318 90 318 119L337 176V788C337 842 298 878 252 887H168C122 878 83 842 83 788V176L102 119Z" fill="url(#cream)"/>
  <path d="M102 119C102 90 128 73 161 73H259C292 73 318 90 318 119L337 176V788C337 842 298 878 252 887H168C122 878 83 842 83 788V176L102 119Z" fill="url(#shine)"/>
  <g clip-path="url(#canClip)"><rect x="60" y="50" width="300" height="860" filter="url(#grain)" opacity=".35"/><path d="M82 128C99 115 117 108 143 106" stroke="white" stroke-opacity=".35" stroke-width="8"/><path d="M330 170V805" stroke="#17120e" stroke-opacity=".18" stroke-width="16"/><path d="M92 170V805" stroke="white" stroke-opacity=".18" stroke-width="12"/></g>
  <ellipse cx="210" cy="884" rx="86" ry="16" fill="#171615" opacity=".75"/>
  <ellipse cx="210" cy="845" rx="117" ry="18" fill="url(#rim)" opacity=".86"/>
  <text x="210" y="278" text-anchor="middle" font-family="Georgia, 'Times New Roman', serif" font-size="82" font-weight="900" fill="#17351f">N</text>
  <rect x="169" y="299" width="82" height="13" fill="#17351f"/>
  <text x="210" y="480" text-anchor="middle" font-family="Arial Narrow, Impact, Oswald, Arial, sans-serif" font-size="68" font-weight="900" fill="#17351f" letter-spacing="5">NORRIS</text>
  <text x="210" y="526" text-anchor="middle" font-family="Arial, sans-serif" font-size="22" font-weight="900" fill="#17351f" letter-spacing="7">BREWING CO.</text>
  <path d="M151 594H269" stroke="#17351f" stroke-width="2" opacity=".46"/>
  <text x="210" y="665" text-anchor="middle" font-family="Arial Narrow, Impact, Oswald, Arial, sans-serif" font-size="30" font-weight="900" fill="#17351f" letter-spacing="4">PALE ALE</text>
  <text x="210" y="742" text-anchor="middle" font-family="Arial Narrow, Impact, Oswald, Arial, sans-serif" font-size="18" font-weight="900" fill="#081521" letter-spacing="3">NON-ALCOHOLIC BEER</text>
  <text x="210" y="800" text-anchor="middle" font-family="Arial, sans-serif" font-size="20" font-weight="800" fill="#081521" letter-spacing="1">355 mL</text>
</g>
</svg>