<svg width="420" height="920" viewBox="0 0 420 920" fill="none" xmlns="http://www.w3.org/2000/svg" role="img" aria-labelledby="title desc">
<title id="title">Norris West Coast IPA can</title>
<desc id="desc">Premium Norris West Coast IPA non-alcoholic beer can in deep forest green with cream and olive type.</desc>
<defs>
  <linearGradient id="green" x1="62" y1="0" x2="354" y2="0" gradientUnits="userSpaceOnUse">
    <stop stop-color="#07120c"/><stop offset=".18" stop-color="#183222"/><stop offset=".46" stop-color="#0d2116"/><stop offset=".72" stop-color="#1e3d2b"/><stop offset="1" stop-color="#050907"/>
  </linearGradient>
  <linearGradient id="rim" x1="85" y1="0" x2="335" y2="0" gradientUnits="userSpaceOnUse">
    <stop stop-color="#181715"/><stop offset=".16" stop-color="#aaa49a"/><stop offset=".42" stop-color="#fbf6e9"/><stop offset=".68" stop-color="#767168"/><stop offset="1" stop-color="#11100f"/>
  </linearGradient>
  <radialGradient id="shine" cx="34%" cy="20%" r="68%"><stop stop-color="#d7ead8" stop-opacity=".25"/><stop offset=".55" stop-color="#d7ead8" stop-opacity="0"/></radialGradient>
  <filter id="grain" x="-20%" y="-20%" width="140%" height="140%"><feTurbulence type="fractalNoise" baseFrequency="0.8" numOctaves="4" seed="18"/><feColorMatrix type="saturate" values="0"/><feComponentTransfer><feFuncA type="table" tableValues="0 .2"/></feComponentTransfer></filter>
  <clipPath id="canClip"><path d="M102 119C102 90 128 73 161 73H259C292 73 318 90 318 119L337 176V788C337 842 298 878 252 887H168C122 878 83 842 83 788V176L102 119Z"/></clipPath>
</defs>
<g filter="drop-shadow(0 52px 54px rgba(0,0,0,.62))">
  <path d="M115 58C115 43 130 34 151 34H269C290 34 305 43 305 58L318 91H102L115 58Z" fill="url(#rim)"/>
  <ellipse cx="210" cy="88" rx="110" ry="15" fill="#f7f0de" opacity=".84"/>
  <path d="M102 119C102 90 128 73 161 73H259C292 73 318 90 318 119L337 176V788C337 842 298 878 252 887H168C122 878 83 842 83 788V176L102 119Z" fill="url(#green)"/>
  <path d="M102 119C102 90 128 73 161 73H259C292 73 318 90 318 119L337 176V788C337 842 298 878 252 887H168C122 878 83 842 83 788V176L102 119Z" fill="url(#shine)"/>
  <g clip-path="url(#canClip)"><rect x="60" y="50" width="300" height="860" filter="url(#grain)" opacity=".38"/><path d="M88 128C108 112 129 105 157 104" stroke="white" stroke-opacity=".18" stroke-width="9"/><path d="M330 170V805" stroke="#000" stroke-opacity=".25" stroke-width="16"/><path d="M92 170V805" stroke="white" stroke-opacity=".1" stroke-width="12"/></g>
  <ellipse cx="210" cy="884" rx="86" ry="16" fill="#080807" opacity=".85"/>
  <ellipse cx="210" cy="845" rx="117" ry="18" fill="url(#rim)" opacity=".78"/>
  <text x="210" y="278" text-anchor="middle" font-family="Georgia, 'Times New Roman', serif" font-size="82" font-weight="900" fill="#eadbc3">N</text>
  <rect x="169" y="299" width="82" height="13" fill="#eadbc3"/>
  <text x="210" y="480" text-anchor="middle" font-family="Arial Narrow, Impact, Oswald, Arial, sans-serif" font-size="68" font-weight="900" fill="#eadbc3" letter-spacing="5">NORRIS</text>
  <text x="210" y="526" text-anchor="middle" font-family="Arial, sans-serif" font-size="22" font-weight="900" fill="#eadbc3" letter-spacing="7">BREWING CO.</text>
  <path d="M151 594H269" stroke="#c5ba96" stroke-width="2" opacity=".9"/>
  <text x="210" y="665" text-anchor="middle" font-family="Arial Narrow, Impact, Oswald, Arial, sans-serif" font-size="28" font-weight="900" fill="#9fa52d" letter-spacing="4">WEST COAST IPA</text>
  <text x="210" y="742" text-anchor="middle" font-family="Arial Narrow, Impact, Oswald, Arial, sans-serif" font-size="18" font-weight="900" fill="#eadbc3" letter-spacing="3">NON-ALCOHOLIC BEER</text>
  <text x="210" y="800" text-anchor="middle" font-family="Arial, sans-serif" font-size="20" font-weight="800" fill="#eadbc3" letter-spacing="1">355 mL</text>
</g>
</svg>