<svg width="420" height="920" viewBox="0 0 420 920" fill="none" xmlns="http://www.w3.org/2000/svg" role="img" aria-labelledby="title desc">
<title id="title">Norris West Coast IPA can</title>
<desc id="desc">Premium non-alcoholic West Coast IPA can concept with blue, red, and cream label.</desc>
<defs>
<linearGradient id="metal" x1="85" x2="335" y1="0" y2="0"><stop stop-color="#9CAAB4"/><stop offset=".23" stop-color="#FAF6ED"/><stop offset=".5" stop-color="#B8CAD4"/><stop offset=".78" stop-color="#F7EFE2"/><stop offset="1" stop-color="#667B88"/></linearGradient>
<linearGradient id="label" x1="74" x2="346" y1="138" y2="820"><stop stop-color="#0B2230"/><stop offset="1" stop-color="#071018"/></linearGradient>
<filter id="shadow" x="0" y="0" width="420" height="920"><feDropShadow dx="0" dy="34" stdDeviation="28" flood-color="#000" flood-opacity=".48"/></filter>
</defs>
<g filter="url(#shadow)">
<path d="M119 48C119 30 135 18 154 18H266C285 18 301 30 301 48L325 118C331 134 334 151 334 169V810C334 854 298 890 254 890H166C122 890 86 854 86 810V169C86 151 89 134 95 118L119 48Z" fill="url(#metal)"/>
<path d="M124 118H296C326 118 350 142 350 172V808C350 864 306 908 250 908H170C114 908 70 864 70 808V172C70 142 94 118 124 118Z" fill="url(#label)"/>
<path d="M95 118H325" stroke="#5D554B" stroke-opacity=".45" stroke-width="4"/>
<path d="M116 55H304" stroke="#F7EFE2" stroke-opacity=".5" stroke-width="5"/>
<path d="M88 184L334 256" stroke="#D42B1F" stroke-width="22"/>
<path d="M84 736L328 666" stroke="#D42B1F" stroke-width="22"/>
<path d="M118 246H302V704H118V246Z" fill="#F7EFE2"/>
<path d="M133 262H287V688H133V262Z" stroke="#0B2230" stroke-width="5"/>
<text x="210" y="296" text-anchor="middle" font-family="Arial, Helvetica, sans-serif" font-size="28" font-weight="900" fill="#0B2230" letter-spacing="4">NORRIS</text>
<text x="210" y="326" text-anchor="middle" font-family="Arial, Helvetica, sans-serif" font-size="11" font-weight="800" fill="#D42B1F" letter-spacing="3">BREWING CO.</text>
<path d="M157 602L184 352H219L242 500L260 352H296L269 602H234L211 454L193 602H157Z" fill="#0B2230"/>
<path d="M164 602L191 352" stroke="#D42B1F" stroke-width="9" stroke-linecap="round"/>
<text x="210" y="660" text-anchor="middle" font-family="Arial, Helvetica, sans-serif" font-size="19" font-weight="900" fill="#0B2230" letter-spacing="2">WEST COAST</text>
<text x="210" y="690" text-anchor="middle" font-family="Arial, Helvetica, sans-serif" font-size="24" font-weight="900" fill="#0B2230" letter-spacing="3">IPA</text>
<text x="210" y="735" text-anchor="middle" font-family="Arial, Helvetica, sans-serif" font-size="11" font-weight="800" fill="#F7EFE2" letter-spacing="3">NON-ALCOHOLIC</text>
<text x="210" y="780" text-anchor="middle" font-family="Arial, Helvetica, sans-serif" font-size="14" font-weight="900" fill="#F7EFE2" letter-spacing="2">PINE • CITRUS • SNAP</text>
<path d="M77 158C92 147 106 140 124 139" stroke="white" stroke-opacity=".45" stroke-width="3"/>
<path d="M339 184V780" stroke="#000" stroke-opacity=".16" stroke-width="9"/>
<path d="M86 178V788" stroke="#fff" stroke-opacity=".14" stroke-width="7"/>
</g>
</svg>
